inDegrees=yes
name=lift_l_res.mot
DataType=double
version=3
OpenSimVersion=4.4-2022-07-23-0e9fedc
endheader
time	pelvis_tilt	pelvis_list	pelvis_rotation	pelvis_tx	pelvis_ty	pelvis_tz	hip_flexion_r	hip_adduction_r	hip_rotation_r	knee_angle_r	knee_angle_r_beta	ankle_angle_r	subtalar_angle_r	mtp_angle_r	hip_flexion_l	hip_adduction_l	hip_rotation_l	knee_angle_l	knee_angle_l_beta	ankle_angle_l	subtalar_angle_l	mtp_angle_l	lumbar_extension	lumbar_bending	lumbar_rotation	arm_flex_r	arm_add_r	arm_rot_r	elbow_flex_r	pro_sup_r	wrist_flex_r	wrist_dev_r	arm_flex_l	arm_add_l	arm_rot_l	elbow_flex_l	pro_sup_l	wrist_flex_l	wrist_dev_l
75	-0.9188835205848598	0.1998486154502488	88.8411915737401	0	0.9399999999999999	0	43.98602686525827	-10.13677542344286	0	60.02193184251272	1.047580334059474	-5.026215754926248	0	0	43.98602686525827	-10.13677542344286	0	60.02193184251272	1.047580334059474	-5.026215754926248	0	0	-0.8809620904977281	-2.715640112705316	0.6892105608120357	0	-13.47531777003244	0	76.16025770960302	44.95914850194163	0	0	26.93974731601526	10.48703330214485	-20.82768455677125	0.005854014332165385	44.95914850194163	0	0
76	-0.923277395078318	0.1828921511328372	88.83450565625779	0	0.9399999999999999	0	43.98908544574547	-10.13573666112381	0	60.02186780712847	1.047579216431181	-5.025974042194601	0	0	43.98908544574547	-10.13573666112381	0	60.02186780712847	1.047579216431181	-5.025974042194601	0	0	-0.8512221130351454	-2.729640850677179	0.714943434734867	0	-13.47807125449316	0	76.15675831648703	44.95940995234348	0	0	32.0908893952134	11.60094750022635	-23.90814259969206	0.005769173999220487	44.95940995234348	0	0
77	-0.9245390156296742	0.1790715905008736	88.83309853607935	0	0.9399999999999999	0	44.0066802500091	-10.12871008848319	0	60.02155708368824	1.047573793284085	-5.024309481295136	0	0	44.0066802500091	-10.12871008848319	0	60.02155708368824	1.047573793284085	-5.024309481295136	0	0	-0.8453617591234731	-2.731836959954958	0.7110364240184082	0	-13.49230634444332	0	76.13662739967812	44.9611399596709	0	0	36.21388822562302	11.39053239080717	-26.96435231285136	0.005387691295185027	44.9611399596709	0	0
78	-0.9284709499054302	0.1963549985833171	88.82988681040875	0	0.9399999999999999	0	44.00941859469221	-10.12780536613193	0	60.02149989165875	1.047572795094865	-5.024101300362901	0	0	44.00941859469221	-10.12780536613193	0	60.02149989165875	1.047572795094865	-5.024101300362901	0	0	-0.8638107587344892	-2.729151776381904	0.7001592869846167	0	-13.49478358898892	0	76.1334943992717	44.9613694898497	0	0	40.97452164089864	11.17037531530375	-29.6128618053926	0.005274513509566149	44.9613694898497	0	0
79	-0.9266378490674495	0.1795298630927659	88.83386175810847	0	0.9399999999999999	0	44.02630593283082	-10.12143514331517	0	60.02119957593045	1.04756755359661	-5.022620803961863	0	0	44.02630593283082	-10.12143514331517	0	60.02119957593045	1.04756755359661	-5.022620803961863	0	0	-0.8434097638217771	-2.736123591067087	0.7091986398767914	0	-13.50864787664894	0	76.11417299783793	44.96296094772629	0	0	44.91382804797784	8.725184924382731	-31.8446425201817	0.004886053325611599	44.96296094772629	0	0
80	-0.9291975514096572	0.1836951585795484	88.82489660350171	0	0.9399999999999999	0	44.02886505508395	-10.1206242377022	0	60.02114585888151	1.047566616057242	-5.022436939489246	0	0	44.02886505508395	-10.1206242377022	0	60.02114585888151	1.047566616057242	-5.022436939489246	0	0	-0.8393792339646052	-2.742441451662438	0.7168434020730853	0	-13.51098726920506	0	76.11124505563852	44.96316894283625	0	0	49.54453564016709	7.003251080960889	-34.07727778112007	0.004724825528520009	44.96316894283625	0	0
81	-0.9282567145420728	0.1791378169860373	88.83431791343557	0	0.9399999999999999	0	44.04762873214491	-10.11375435121594	0	60.02081333561964	1.047560812431483	-5.020860074839105	0	0	44.04762873214491	-10.11375435121594	0	60.02081333561964	1.047560812431483	-5.020860074839105	0	0	-0.8416509668097961	-2.73601299391176	0.7069492034451392	0	-13.52645809908074	0	76.08977690152733	44.96490040150826	0	0	53.29304123828236	4.381442581127616	-36.76585085597142	0.004607919000894768	44.96490040150826	0	0
82	-0.9298623728044473	0.1797460709000641	88.82978942681696	0	0.9399999999999999	0	44.063710709426	-10.10796289642024	0	60.02052700035011	1.047555814938265	-5.019539253870749	0	0	44.063710709426	-10.10796289642024	0	60.02052700035011	1.047555814938265	-5.019539253870749	0	0	-0.8468311684243881	-2.740190098643663	0.7063505088304627	0	-13.53977818516597	0	76.071376982084	44.96636663986551	0	0	55.92790672698774	1.490563305396026	-37.94113733934443	0.004470337376318109	44.96636663986551	0	0
83	-0.9189506614131768	0.1776609470241894	88.83553841488764	0	0.9399999999999999	0	44.07707359131176	-10.10337187248517	0	60.02028624992121	1.047551613050605	-5.018509620921308	0	0	44.07707359131176	-10.10337187248517	0	60.02028624992121	1.047551613050605	-5.018509620921308	0	0	-0.8313433037960122	-2.731451397376692	0.7079128571588156	0	-13.5509901608223	0	76.05608810793869	44.96754339119177	0	0	57.72206380967504	-1.539687732246608	-39.47905912795449	0.004209951030790038	44.96754339119177	0	0
84	-0.9255223375519955	0.1752137812953569	88.83505508989647	0	0.9399999999999999	0	44.0774380371026	-10.1032289504022	0	60.02028001901016	1.047551504300692	-5.018476225548472	0	0	44.0774380371026	-10.1032289504022	0	60.02028001901016	1.047551504300692	-5.018476225548472	0	0	-0.8390337111489041	-2.739381283204568	0.7033986634543001	0	-13.55128269534487	0	76.05567113121792	44.96757887487265	0	0	57.18565290650034	-2.681590178748312	-39.47847082192872	0.004096490943719583	44.96757887487265	0	0
85	-0.9261863676386528	0.1772114724469408	88.82620307652512	0	0.9399999999999999	0	44.09049382201542	-10.09892260587238	0	60.02004169861248	1.047547344825078	-5.017523392921454	0	0	44.09049382201542	-10.09892260587238	0	60.02004169861248	1.047547344825078	-5.017523392921454	0	0	-0.841800827592165	-2.736301601423579	0.7124639555653708	0	-13.56237526338617	0	76.04073364753823	44.96869395065197	0	0	55.25677651338659	-1.04499983688799	-38.56110377583857	0.004134991570170565	44.96869395065197	0	0
86	-0.9273381994762143	0.1822850573719128	88.83015221838234	0	0.9399999999999999	0	44.10987800444709	-10.09322138313953	0	60.01968184689962	1.04754106422787	-5.016307142398477	0	0	44.10987800444709	-10.09322138313953	0	60.01968184689962	1.04754106422787	-5.016307142398477	0	0	-0.8428862550508778	-2.734662162276302	0.7105408227125481	0	-13.57935607448157	0	76.01855581913362	44.97021297059973	0	0	52.01437392692159	1.525179373652881	-37.16369893566068	0.00452045442440877	44.97021297059973	0	0
